<?xml version="1.0" encoding="UTF-8" standalone="no"?>
<!DOCTYPE svg PUBLIC "-//W3C//DTD SVG 1.1//EN" "http://www.w3.org/Graphics/SVG/1.1/DTD/svg11.dtd">
<svg version="1.1" xmlns="http://www.w3.org/2000/svg" xmlns:xlink="http://www.w3.org/1999/xlink" preserveAspectRatio="xMidYMid meet" viewBox="0 0 640 640" width="640" height="640"><defs><path d="M527.32 181.01C538.37 181.01 547.32 189.97 547.32 201.01C547.32 249.18 547.32 373.67 547.32 421.84C547.32 432.89 538.37 441.84 527.32 441.84C440.39 441.84 199.61 441.84 112.68 441.84C101.63 441.84 92.68 432.89 92.68 421.84C92.68 373.67 92.68 249.18 92.68 201.01C92.68 189.97 101.63 181.01 112.68 181.01C199.61 181.01 440.39 181.01 527.32 181.01Z" id="a2jRTuAgf4"></path><path d="M315.13 181.01C307.57 150.77 319.94 127.06 352.24 109.88" id="c5KQHsstR"></path><path d="M476.58 603.8C468.76 493.14 414.33 439.19 313.3 441.94C212.27 444.69 157.63 498.64 149.38 603.8L476.58 603.8Z" id="g277tyYdMJ"></path><path d="M149.38 248.49L269.66 248.49L269.66 368.77L149.38 368.77L149.38 248.49Z" id="c3BhLthGm3"></path><path d="M367.77 248.49L488.05 248.49L488.05 368.77L367.77 368.77L367.77 248.49Z" id="e1xHNhECeH"></path><path d="M367.77 308.63L269.66 308.63" id="a3rl76Id3o"></path><path d="M384.78 20.1L478.1 63.54L434.67 156.86L341.34 113.42L384.78 20.1Z" id="d2fC7ibLRk"></path></defs><g><g><g><use xlink:href="#a2jRTuAgf4" opacity="1" fill="#ffffff" fill-opacity="1"></use><g><use xlink:href="#a2jRTuAgf4" opacity="1" fill-opacity="0" stroke="#000000" stroke-width="20" stroke-opacity="1"></use></g></g><g><g><use xlink:href="#c5KQHsstR" opacity="1" fill-opacity="0" stroke="#000000" stroke-width="20" stroke-opacity="1"></use></g></g><g><use xlink:href="#g277tyYdMJ" opacity="1" fill="#000000" fill-opacity="1"></use><g><use xlink:href="#g277tyYdMJ" opacity="1" fill-opacity="0" stroke="#000000" stroke-width="20" stroke-opacity="1"></use></g></g><g><g><use xlink:href="#c3BhLthGm3" opacity="1" fill-opacity="0" stroke="#000000" stroke-width="20" stroke-opacity="1"></use></g></g><g><g><use xlink:href="#e1xHNhECeH" opacity="1" fill-opacity="0" stroke="#000000" stroke-width="20" stroke-opacity="1"></use></g></g><g><g><use xlink:href="#a3rl76Id3o" opacity="1" fill-opacity="0" stroke="#000000" stroke-width="20" stroke-opacity="1"></use></g></g><g><use xlink:href="#d2fC7ibLRk" opacity="1" fill="#000000" fill-opacity="1"></use></g></g></g></svg>