<?xml version="1.0" encoding="UTF-8" standalone="no"?>
<!DOCTYPE svg PUBLIC "-//W3C//DTD SVG 1.1//EN" "http://www.w3.org/Graphics/SVG/1.1/DTD/svg11.dtd">
<svg version="1.1" xmlns="http://www.w3.org/2000/svg" xmlns:xlink="http://www.w3.org/1999/xlink" preserveAspectRatio="xMidYMid meet" viewBox="0 0 640 640" width="640" height="640"><defs><path d="M527.32 181.01C538.37 181.01 547.32 189.97 547.32 201.01C547.32 249.18 547.32 373.67 547.32 421.84C547.32 432.89 538.37 441.84 527.32 441.84C440.39 441.84 199.61 441.84 112.68 441.84C101.63 441.84 92.68 432.89 92.68 421.84C92.68 373.67 92.68 249.18 92.68 201.01C92.68 189.97 101.63 181.01 112.68 181.01C199.61 181.01 440.39 181.01 527.32 181.01Z" id="f3D5UTrnSB"></path><path d="M315.13 181.01C307.57 150.77 319.94 127.06 352.24 109.88" id="b5yDId5Kz"></path><path d="M476.58 603.7C468.76 493.04 414.33 439.09 313.3 441.84C212.27 444.59 157.63 498.54 149.38 603.7L476.58 603.7Z" id="cpXlvPsBn"></path><path d="M184.52 343.44C199.62 357.93 226.77 360.98 265.97 352.59L175.36 265.65C166.36 303.02 169.42 328.95 184.52 343.44Z" id="g2RqPu51M7"></path><path d="M455.48 343.44C440.38 357.93 413.23 360.98 374.03 352.59L464.64 265.65C473.64 303.02 470.58 328.95 455.48 343.44Z" id="j4yihXumG"></path><path d="M430.99 96.44L442.18 55.19L407.92 77.56L412.11 36.3L369.46 46.1C343.99 66.71 338.26 87.97 352.24 109.88C366.23 131.79 399.24 137.57 451.27 127.21L465.26 82.46L430.99 96.44Z" id="ask76xbvO"></path></defs><g><g><g><use xlink:href="#f3D5UTrnSB" opacity="1" fill="#ffffff" fill-opacity="1"></use><g><use xlink:href="#f3D5UTrnSB" opacity="1" fill-opacity="0" stroke="#000000" stroke-width="20" stroke-opacity="1"></use></g></g><g><g><use xlink:href="#b5yDId5Kz" opacity="1" fill-opacity="0" stroke="#000000" stroke-width="20" stroke-opacity="1"></use></g></g><g><use xlink:href="#cpXlvPsBn" opacity="1" fill="#fd4141" fill-opacity="1"></use><g><use xlink:href="#cpXlvPsBn" opacity="1" fill-opacity="0" stroke="#000000" stroke-width="20" stroke-opacity="1"></use></g></g><g><use xlink:href="#g2RqPu51M7" opacity="1" fill="#fd4141" fill-opacity="1"></use><g><use xlink:href="#g2RqPu51M7" opacity="1" fill-opacity="0" stroke="#000000" stroke-width="20" stroke-opacity="1"></use></g></g><g><use xlink:href="#j4yihXumG" opacity="1" fill="#fd4141" fill-opacity="1"></use><g><use xlink:href="#j4yihXumG" opacity="1" fill-opacity="0" stroke="#000000" stroke-width="20" stroke-opacity="1"></use></g></g><g><use xlink:href="#ask76xbvO" opacity="1" fill="#fd4141" fill-opacity="1"></use><g><use xlink:href="#ask76xbvO" opacity="1" fill-opacity="0" stroke="#000000" stroke-width="20" stroke-opacity="1"></use></g></g></g></g></svg>