<?xml version="1.0" encoding="UTF-8" standalone="no"?>
<!DOCTYPE svg PUBLIC "-//W3C//DTD SVG 1.1//EN" "http://www.w3.org/Graphics/SVG/1.1/DTD/svg11.dtd">
<svg version="1.1" xmlns="http://www.w3.org/2000/svg" xmlns:xlink="http://www.w3.org/1999/xlink" preserveAspectRatio="xMidYMid meet" viewBox="0 0 640 640" width="640" height="640"><defs><path d="M321.74 101.76C309.06 101.76 298.33 104.75 289.56 110.74C207.23 154.79 160.55 181.45 149.52 190.72C142.16 196.9 135.57 205.91 129.74 217.74C124.89 227.59 122.26 238.39 122.05 249.37C120.68 320.06 120.79 368.27 122.37 393.99C124.14 422.68 134.51 442.55 153.49 453.58C229.86 495.08 273.78 520.02 285.25 528.4C296.73 536.79 308.89 540.32 321.74 539C321.37 537.5 321.13 536.56 321.04 536.18C313.65 506.23 327.34 475.05 354.41 460.23C354.88 459.97 356.06 459.32 357.96 458.29C406.17 430.22 431.59 415.5 434.21 414.12C449.44 406.11 457.34 396.4 457.93 384.99C458.09 309.26 458.09 267.32 457.93 259.18C457.75 249.81 453.02 240.89 443.74 232.45C423.76 221 408.7 212.4 398.54 206.67C388.39 200.93 376.47 200.46 362.78 205.25C315.48 233.28 294.91 245.53 301.09 242C306.58 238.87 316.89 238.19 332.01 239.97C334.55 240.27 336.99 241.11 339.17 242.45C358.29 254.14 372.49 262.44 381.77 267.35C391.78 272.65 397.37 280.59 398.54 291.19C398.84 315.32 398.84 333.71 398.54 346.36C398.25 359.02 392.66 368.49 381.77 374.79L338.64 399.07C305.68 419.08 284.35 431.44 274.64 436.15C264.93 440.86 254.77 440.56 244.18 435.27C229.47 426.44 216.22 418.64 204.45 411.87C192.68 405.1 185.78 392.74 183.75 374.79C183.75 334.53 183.75 301.16 183.75 274.68C183.75 248.19 196.7 229.65 222.59 219.06C248.97 203.49 273.55 189.09 296.32 175.86C319.1 162.62 327.57 137.93 321.74 101.76" id="b45qDbGKZ8"></path><linearGradient id="gradienth1WQGksUvg" gradientUnits="userSpaceOnUse" x1="296.39" y1="113.18" x2="302.06" y2="539.27"><stop style="stop-color: #a6a6a6;stop-opacity: 0.48" offset="0%"></stop><stop style="stop-color: #fdf3fe;stop-opacity: 1" offset="100%"></stop></linearGradient><path d="M321.15 538.47C328.69 539.22 340.22 536.46 355.72 530.19L368.91 522.75C432.92 485.46 474.08 461.37 492.37 450.47C510.66 439.56 519.41 424.79 518.64 406.15C518.99 309.95 518.99 252.36 518.64 233.36C518.29 214.37 505.8 197.84 481.18 183.77C404.93 138.96 361.35 113.56 350.44 107.58C339.54 101.61 329.78 99.54 321.15 101.38C321.29 102.33 321.38 102.93 321.41 103.17C325.45 130.93 314.69 158.79 293.02 176.63C293.01 176.64 292.98 176.66 292.94 176.7C251.86 201.22 223.61 217.51 208.18 225.58C192.76 233.65 184.45 248.4 183.26 269.83C183.35 324.16 183.23 359.19 182.9 374.91C182.57 390.63 188.37 402.23 200.3 409.69C223.77 423.94 239.47 432.99 247.38 436.84C255.3 440.69 263.95 440.83 273.32 437.27L302.31 420.84C337.92 400.01 351.93 392.08 344.34 397.02C336.76 401.97 323.54 402.72 304.69 399.28C276.48 383.11 259.35 373.05 253.3 369.09C247.26 365.13 244.22 359.41 244.18 351.92C244.29 319.65 244.29 298.63 244.18 288.84C244.07 279.06 249.46 271.42 260.34 265.92C323.06 229.53 358.18 209.42 365.7 205.59C373.21 201.76 383.48 201.76 396.48 205.59C416.81 216.88 432.04 225.75 442.16 232.22C452.28 238.69 457.55 248.94 457.95 262.99C457.67 328.19 457.67 367.26 457.95 380.19C458.23 393.13 452.46 402.96 440.64 409.69C411.42 426.35 381.76 443.42 351.68 460.87C321.59 478.33 311.42 504.34 321.15 538.89" id="c1c7thxHPR"></path><linearGradient id="gradientf2lVdRekJK" gradientUnits="userSpaceOnUse" x1="350.9" y1="100.73" x2="350.9" y2="538.89"><stop style="stop-color: #fcf2fd;stop-opacity: 1" offset="0%"></stop><stop style="stop-color: #a6a6a6;stop-opacity: 0.48" offset="100%"></stop></linearGradient></defs><g><g><g><use xlink:href="#b45qDbGKZ8" opacity="1" fill="url(#gradienth1WQGksUvg)"></use></g><g><use xlink:href="#c1c7thxHPR" opacity="1" fill="url(#gradientf2lVdRekJK)"></use><g><use xlink:href="#c1c7thxHPR" opacity="1" fill-opacity="0" stroke="#000000" stroke-width="0" stroke-opacity="1"></use></g></g></g></g></svg>