<?xml version="1.0" encoding="UTF-8" standalone="no"?>
<!DOCTYPE svg PUBLIC "-//W3C//DTD SVG 1.1//EN" "http://www.w3.org/Graphics/SVG/1.1/DTD/svg11.dtd">
<svg version="1.1" xmlns="http://www.w3.org/2000/svg" xmlns:xlink="http://www.w3.org/1999/xlink" preserveAspectRatio="xMidYMid meet" viewBox="0 0 640 640" width="640" height="640"><defs><path d="M527.32 188.76C538.37 188.76 547.32 197.72 547.32 208.76C547.32 256.93 547.32 381.42 547.32 429.59C547.32 440.63 538.37 449.59 527.32 449.59C440.39 449.59 199.61 449.59 112.68 449.59C101.63 449.59 92.68 440.63 92.68 429.59C92.68 381.42 92.68 256.93 92.68 208.76C92.68 197.72 101.63 188.76 112.68 188.76C199.61 188.76 440.39 188.76 527.32 188.76Z" id="c2tVnYjFu1"></path><path d="M476.58 611.54C468.76 500.89 414.33 446.94 313.3 449.69C212.27 452.44 157.63 506.39 149.38 611.54L476.58 611.54Z" id="h1yzJbwWh0"></path><path d="M363.3 73.04C363.3 97.65 343.32 117.63 318.72 117.63C294.11 117.63 274.13 97.65 274.13 73.04C274.13 48.44 294.11 28.46 318.72 28.46C343.32 28.46 363.3 48.44 363.3 73.04Z" id="b1wRnktR2R"></path><path d="M318.72 188.76L320 117.63" id="aa8Gv7Bmq"></path><path d="M256.83 283.9C256.83 311.19 240.57 333.35 220.54 333.35C200.5 333.35 184.24 311.19 184.24 283.9C184.24 256.62 200.5 234.46 220.54 234.46C240.57 234.46 256.83 256.62 256.83 283.9Z" id="dhu3MuNiF"></path><path d="M318.72 405.03C290.72 424.82 237.93 416.23 160.35 379.26C197.06 389.9 227.57 387.87 251.87 373.19C276.18 358.5 298.46 361.54 318.72 382.3" id="a5ehv2Ss2"></path><path d="M318.72 405.03C346.71 424.82 399.5 416.23 477.09 379.26C440.38 389.9 409.87 387.87 385.56 373.19C361.25 358.5 338.97 361.54 318.72 382.3" id="c5aYfgfMO"></path><path d="M453.2 283.9C453.2 311.19 436.93 333.35 416.9 333.35C396.87 333.35 380.6 311.19 380.6 283.9C380.6 256.62 396.87 234.46 416.9 234.46C436.93 234.46 453.2 256.62 453.2 283.9Z" id="docYOy9tw"></path></defs><g><g><g><use xlink:href="#c2tVnYjFu1" opacity="1" fill="#ffffff" fill-opacity="1"></use><g><use xlink:href="#c2tVnYjFu1" opacity="1" fill-opacity="0" stroke="#000000" stroke-width="20" stroke-opacity="1"></use></g></g><g><use xlink:href="#h1yzJbwWh0" opacity="1" fill="#ffffff" fill-opacity="1"></use><g><use xlink:href="#h1yzJbwWh0" opacity="1" fill-opacity="0" stroke="#000000" stroke-width="20" stroke-opacity="1"></use></g></g><g><use xlink:href="#b1wRnktR2R" opacity="1" fill="#ffffff" fill-opacity="1"></use><g><use xlink:href="#b1wRnktR2R" opacity="1" fill-opacity="0" stroke="#000000" stroke-width="20" stroke-opacity="1"></use></g></g><g><g><use xlink:href="#aa8Gv7Bmq" opacity="1" fill-opacity="0" stroke="#000000" stroke-width="20" stroke-opacity="1"></use></g></g><g><use xlink:href="#dhu3MuNiF" opacity="1" fill="#ffffff" fill-opacity="1"></use><g><use xlink:href="#dhu3MuNiF" opacity="1" fill-opacity="0" stroke="#000000" stroke-width="20" stroke-opacity="1"></use></g></g><g><use xlink:href="#a5ehv2Ss2" opacity="1" fill="#000000" fill-opacity="1"></use><g><use xlink:href="#a5ehv2Ss2" opacity="1" fill-opacity="0" stroke="#000000" stroke-width="0" stroke-opacity="1"></use></g></g><g><use xlink:href="#c5aYfgfMO" opacity="1" fill="#000000" fill-opacity="1"></use><g><use xlink:href="#c5aYfgfMO" opacity="1" fill-opacity="0" stroke="#000000" stroke-width="0" stroke-opacity="1"></use></g></g><g><use xlink:href="#docYOy9tw" opacity="1" fill="#ffffff" fill-opacity="1"></use><g><use xlink:href="#docYOy9tw" opacity="1" fill-opacity="0" stroke="#000000" stroke-width="20" stroke-opacity="1"></use></g></g></g></g></svg>